<svg xmlns="http://www.w3.org/2000/svg" xmlns:xlink="http://www.w3.org/1999/xlink" version="1.1" data-diagram-type="ACTIVITY" style="width:1087px;height:1428px;background:#FFFFFF;" width="1087px" height="1428px" viewBox="0 0 1087 1428" zoomAndPan="magnify" preserveAspectRatio="none" contentStyleType="text/css"><?plantuml 1.2026.8beta1?><defs/><g font-family="sans-serif" lengthAdjust="spacing"><g class="title" data-source-line="32"><text x="152.233" y="33.564" fill="#000" font-size="20" textLength="780.723" font-weight="700" font-family="'Segoe UI', 'Noto Sans', Arial, sans-serif">QUY TRÌNH PHÂN BỔ LEAD &amp; CHỐNG CƯỚP KHÁCH — TECHCORP CRM</text></g><ellipse cx="441.902" cy="64.281" rx="10" ry="10" fill="#FFF" style="stroke:#000;stroke-width:1;"/><rect x="264.741" y="94.281" width="354.322" height="66.266" fill="#FFF" style="stroke:#000;stroke-width:1.5;" rx="4" ry="4"/><text x="282.741" y="124.348" fill="#000" font-size="13" textLength="318.322" font-family="'Segoe UI', 'Noto Sans', Arial, sans-serif">Hệ thống chạy phân bổ tự động theo lịch định kỳ</text><text x="282.741" y="139.481" fill="#000" font-size="13" textLength="248.117" font-family="'Segoe UI', 'Noto Sans', Arial, sans-serif">hoặc Trưởng nhóm kích hoạt thủ công</text><rect x="277.534" y="180.547" width="328.735" height="81.398" fill="#FFF" style="stroke:#000;stroke-width:1.5;" rx="4" ry="4"/><text x="295.534" y="210.614" fill="#000" font-size="13" textLength="273.584" font-family="'Segoe UI', 'Noto Sans', Arial, sans-serif">Lấy danh sách Lead chưa được phân công</text><text x="295.534" y="225.747" fill="#000" font-size="13" textLength="292.735" font-family="'Segoe UI', 'Noto Sans', Arial, sans-serif">(chưa có Đội &amp; chưa có Nhân viên phụ trách)</text><text x="295.534" y="240.879" fill="#000" font-size="13" textLength="182.108" font-family="'Segoe UI', 'Noto Sans', Arial, sans-serif">trong vòng 7 ngày gần nhất</text><polygon points="340.857,281.945,542.947,281.945,554.947,297.078,542.947,312.211,340.857,312.211,328.857,297.078,340.857,281.945" fill="#FFF" style="stroke:#000;stroke-width:1.5;stroke-linejoin:miter;stroke-miterlimit:10;"/><text x="340.857" y="294.012" fill="#000" font-size="13" textLength="167.223" font-family="'Segoe UI', 'Noto Sans', Arial, sans-serif">Lead trùng email / liên hệ</text><text x="340.857" y="309.145" fill="#000" font-size="13" textLength="202.09" font-family="'Segoe UI', 'Noto Sans', Arial, sans-serif">với khách đã có trên hệ thống?</text><text x="269.855" y="294.484" fill="#000" font-size="11" textLength="59.001" font-family="'Segoe UI', 'Noto Sans', Arial, sans-serif">CÓ TRÙNG</text><text x="554.947" y="294.484" fill="#000" font-size="11" textLength="83.558" font-family="'Segoe UI', 'Noto Sans', Arial, sans-serif">KHÔNG TRÙNG</text><rect x="106.622" y="322.211" width="353.072" height="81.398" fill="#FFF3CD" style="stroke:#000;stroke-width:1.5;" rx="4" ry="4"/><text x="124.622" y="352.278" fill="#000" font-size="13" textLength="317.072" font-family="'Segoe UI', 'Noto Sans', Arial, sans-serif">Hệ thống tự động gộp vào hồ sơ khách hàng gốc</text><text x="124.622" y="367.411" fill="#000" font-size="13" textLength="130.032" font-family="'Segoe UI', 'Noto Sans', Arial, sans-serif">→ Loại bỏ bản trùng</text><text x="124.622" y="382.543" fill="#000" font-size="13" textLength="257.207" font-family="'Segoe UI', 'Noto Sans', Arial, sans-serif">→ Ngăn 2 nhân viên cùng chào 1 khách</text><rect x="479.694" y="322.211" width="241.905" height="66.266" fill="#E8F5E9" style="stroke:#000;stroke-width:1.5;" rx="4" ry="4"/><text x="497.694" y="352.278" fill="#000" font-size="13" textLength="75.778" font-family="'Segoe UI', 'Noto Sans', Arial, sans-serif">Lead hợp lệ</text><text x="497.694" y="367.411" fill="#000" font-size="13" textLength="205.905" font-family="'Segoe UI', 'Noto Sans', Arial, sans-serif">→ Đưa vào hàng chờ phân công</text><polygon points="441.902,409.609,453.902,421.609,441.902,433.609,429.902,421.609,441.902,409.609" fill="#FFF" style="stroke:#000;stroke-width:1.5;stroke-linejoin:miter;stroke-miterlimit:10;"/><polygon points="315.425,453.609,568.379,453.609,580.379,468.742,568.379,483.875,315.425,483.875,303.425,468.742,315.425,453.609" fill="#FFF" style="stroke:#000;stroke-width:1.5;stroke-linejoin:miter;stroke-miterlimit:10;"/><text x="315.425" y="465.676" fill="#000" font-size="13" textLength="252.954" font-family="'Segoe UI', 'Noto Sans', Arial, sans-serif">Lead khớp tiêu chí địa bàn / phân khúc</text><text x="315.425" y="480.809" fill="#000" font-size="13" textLength="194.08" font-family="'Segoe UI', 'Noto Sans', Arial, sans-serif">của Đội bán hàng nào không?</text><text x="175.04" y="466.148" fill="#000" font-size="11" textLength="128.385" font-family="'Segoe UI', 'Noto Sans', Arial, sans-serif">KHÔNG KHỚP ĐỘI NÀO</text><text x="580.379" y="466.148" fill="#000" font-size="11" textLength="56.085" font-family="'Segoe UI', 'Noto Sans', Arial, sans-serif">KHỚP ĐỘI</text><rect x="74.101" y="493.875" width="324.336" height="96.531" fill="#FFCDD2" style="stroke:#000;stroke-width:1.5;" rx="4" ry="4"/><text x="92.101" y="523.942" fill="#000" font-size="13" textLength="288.336" font-family="'Segoe UI', 'Noto Sans', Arial, sans-serif">Giữ nguyên tại Bể Chờ Chung (toàn công ty)</text><text x="92.101" y="539.075" fill="#000" font-size="13" textLength="124.89" font-family="'Segoe UI', 'Noto Sans', Arial, sans-serif">→ Chưa thuộc về ai</text><text x="92.101" y="554.208" fill="#000" font-size="13" textLength="224.104" font-family="'Segoe UI', 'Noto Sans', Arial, sans-serif">→ Quản lý cần cấu hình lại tiêu chí</text><text x="92.101" y="569.34" fill="#000" font-size="13" textLength="128.75" font-family="'Segoe UI', 'Noto Sans', Arial, sans-serif">hoặc phân công tay</text><ellipse cx="236.269" cy="621.406" rx="11" ry="11" fill="none" style="stroke:#000;stroke-width:1;"/><ellipse cx="236.269" cy="621.406" rx="6" ry="6" fill="#FFF" style="stroke:#000;stroke-width:1;"/><rect x="418.437" y="493.875" width="458.195" height="96.531" fill="#E1F5FE" style="stroke:#000;stroke-width:1.5;" rx="4" ry="4"/><text x="436.437" y="523.942" fill="#000" font-size="13" textLength="237.974" font-family="'Segoe UI', 'Noto Sans', Arial, sans-serif">Gán Lead cho Đội bán hàng phù hợp</text><text x="436.437" y="539.075" fill="#000" font-size="13" textLength="301.59" font-family="'Segoe UI', 'Noto Sans', Arial, sans-serif">(theo tiêu chí địa bàn, nguồn lead, phân khúc)</text><text x="436.437" y="554.208" fill="#000" font-size="13" textLength="422.195" font-family="'Segoe UI', 'Noto Sans', Arial, sans-serif">→ Nhiều đội cùng đủ điều kiện: chọn NGẪU NHIÊN CÓ TRỌNG SỐ</text><text x="436.437" y="569.34" fill="#000" font-size="13" textLength="363.2" font-family="'Segoe UI', 'Noto Sans', Arial, sans-serif">(Đội dung lượng lớn hơn → xác suất được chọn cao hơn)</text><rect x="270.463" y="652.406" width="342.877" height="81.398" fill="#FFF" style="stroke:#000;stroke-width:1.5;" rx="4" ry="4"/><text x="288.463" y="682.473" fill="#000" font-size="13" textLength="306.877" font-family="'Segoe UI', 'Noto Sans', Arial, sans-serif">Lọc Nhân viên trong Đội đủ điều kiện hôm nay:</text><text x="288.463" y="697.606" fill="#000" font-size="13" textLength="239.015" font-family="'Segoe UI', 'Noto Sans', Arial, sans-serif">• Không đang Tạm dừng / Nghỉ phép</text><text x="288.463" y="712.739" fill="#000" font-size="13" textLength="280.528" font-family="'Segoe UI', 'Noto Sans', Arial, sans-serif">• Còn hạn mức ngày (= Quota tháng ÷ 30)</text><polygon points="377.518,753.805,506.286,753.805,518.286,768.938,506.286,784.07,377.518,784.07,365.518,768.938,377.518,753.805" fill="#FFF" style="stroke:#000;stroke-width:1.5;stroke-linejoin:miter;stroke-miterlimit:10;"/><text x="377.518" y="765.872" fill="#000" font-size="13" textLength="117.603" font-family="'Segoe UI', 'Noto Sans', Arial, sans-serif">Đội còn nhân viên</text><text x="377.518" y="781.004" fill="#000" font-size="13" textLength="128.769" font-family="'Segoe UI', 'Noto Sans', Arial, sans-serif">khả dụng hôm nay?</text><text x="299.281" y="766.343" fill="#000" font-size="11" textLength="66.236" font-family="'Segoe UI', 'Noto Sans', Arial, sans-serif">ĐỘI ĐÃ ĐẦY</text><text x="518.286" y="766.343" fill="#000" font-size="11" textLength="87.844" font-family="'Segoe UI', 'Noto Sans', Arial, sans-serif">CÒN KHẢ DỤNG</text><rect x="11" y="794.07" width="313.304" height="96.531" fill="#FFE0B2" style="stroke:#000;stroke-width:1.5;" rx="4" ry="4"/><text x="29" y="824.137" fill="#000" font-size="13" textLength="198.421" font-family="'Segoe UI', 'Noto Sans', Arial, sans-serif">Lead giữ trong Bể Chờ của Đội</text><text x="29" y="839.27" fill="#000" font-size="13" textLength="264.9" font-family="'Segoe UI', 'Noto Sans', Arial, sans-serif">(Có đội nhưng chưa có nhân viên cụ thể)</text><text x="29" y="854.403" fill="#000" font-size="13" textLength="203.068" font-family="'Segoe UI', 'Noto Sans', Arial, sans-serif">→ Trưởng nhóm nhận cảnh báo</text><text x="29" y="869.536" fill="#000" font-size="13" textLength="277.304" font-family="'Segoe UI', 'Noto Sans', Arial, sans-serif">→ Điều phối thủ công hoặc đợi ca hôm sau</text><ellipse cx="167.652" cy="936.602" rx="11" ry="11" fill="none" style="stroke:#000;stroke-width:1;"/><ellipse cx="167.652" cy="936.602" rx="6" ry="6" fill="#FFF" style="stroke:#000;stroke-width:1;"/><polygon points="612.507,794.07,819.797,794.07,831.797,809.203,819.797,824.336,612.507,824.336,600.507,809.203,612.507,794.07" fill="#FFF" style="stroke:#000;stroke-width:1.5;stroke-linejoin:miter;stroke-miterlimit:10;"/><text x="612.507" y="806.137" fill="#000" font-size="13" textLength="207.289" font-family="'Segoe UI', 'Noto Sans', Arial, sans-serif">Lead khớp lĩnh vực chuyên môn</text><text x="612.507" y="821.27" fill="#000" font-size="13" textLength="190.004" font-family="'Segoe UI', 'Noto Sans', Arial, sans-serif">của nhân viên nào trong đội?</text><text x="511.981" y="806.609" fill="#000" font-size="11" textLength="88.526" font-family="'Segoe UI', 'Noto Sans', Arial, sans-serif">CÓ CHUYÊN GIA</text><text x="831.797" y="806.609" fill="#000" font-size="11" textLength="132.918" font-family="'Segoe UI', 'Noto Sans', Arial, sans-serif">KHÔNG CÓ CHUYÊN GIA</text><rect x="354.304" y="834.336" width="354.754" height="96.531" fill="#EDE7F6" style="stroke:#000;stroke-width:1.5;" rx="4" ry="4"/><text x="372.304" y="864.403" fill="#000" font-size="13" textLength="216.798" font-family="'Segoe UI', 'Noto Sans', Arial, sans-serif">VÒNG 1 — ƯU TIÊN CHUYÊN GIA:</text><text x="372.304" y="879.536" fill="#000" font-size="13" textLength="318.754" font-family="'Segoe UI', 'Noto Sans', Arial, sans-serif">Gán cho Nhân viên có chuyên môn phù hợp nhất</text><text x="372.304" y="894.668" fill="#000" font-size="13" textLength="214.373" font-family="'Segoe UI', 'Noto Sans', Arial, sans-serif">→ Ưu tiên lead xác suất chốt cao</text><text x="372.304" y="909.801" fill="#000" font-size="13" textLength="191.477" font-family="'Segoe UI', 'Noto Sans', Arial, sans-serif">→ Tối đa hóa tỷ lệ chuyển đổi</text><rect x="729.058" y="834.336" width="343.131" height="96.531" fill="#E1F5FE" style="stroke:#000;stroke-width:1.5;" rx="4" ry="4"/><text x="747.058" y="864.403" fill="#000" font-size="13" textLength="240.982" font-family="'Segoe UI', 'Noto Sans', Arial, sans-serif">VÒNG 2 — XOAY VÒNG CÔNG BẰNG:</text><text x="747.058" y="879.536" fill="#000" font-size="13" textLength="237.548" font-family="'Segoe UI', 'Noto Sans', Arial, sans-serif">Xét toàn bộ thành viên còn hạn mức</text><text x="747.058" y="894.668" fill="#000" font-size="13" textLength="302.148" font-family="'Segoe UI', 'Noto Sans', Arial, sans-serif">→ Lead cũng sort theo xác suất chốt giảm dần</text><text x="747.058" y="909.801" fill="#000" font-size="13" textLength="307.131" font-family="'Segoe UI', 'Noto Sans', Arial, sans-serif">→ Xoay lượt công bằng, không ai ôm quá nhiều</text><polygon points="716.152,936.867,728.152,948.867,716.152,960.867,704.152,948.867,716.152,936.867" fill="#FFF" style="stroke:#000;stroke-width:1.5;stroke-linejoin:miter;stroke-miterlimit:10;"/><rect x="550.585" y="980.867" width="331.134" height="96.531" fill="#C8E6C9" style="stroke:#000;stroke-width:1.5;" rx="4" ry="4"/><text x="568.585" y="1010.934" fill="#000" font-size="13" textLength="177.334" font-family="'Segoe UI', 'Noto Sans', Arial, sans-serif">PHÂN CÔNG THÀNH CÔNG:</text><text x="568.585" y="1026.067" fill="#000" font-size="13" textLength="295.134" font-family="'Segoe UI', 'Noto Sans', Arial, sans-serif">1. Nhân viên trở thành Người phụ trách chính</text><text x="568.585" y="1041.2" fill="#000" font-size="13" textLength="253.633" font-family="'Segoe UI', 'Noto Sans', Arial, sans-serif">2. Lead tự động nâng cấp thành Cơ hội</text><text x="568.585" y="1056.333" fill="#000" font-size="13" textLength="244.429" font-family="'Segoe UI', 'Noto Sans', Arial, sans-serif">3. Ghi nhận 1 lead vào hạn mức ngày</text><polygon points="653.399,1097.398,778.905,1097.398,790.905,1112.531,778.905,1127.664,653.399,1127.664,641.399,1112.531,653.399,1097.398" fill="#FFF" style="stroke:#000;stroke-width:1.5;stroke-linejoin:miter;stroke-miterlimit:10;"/><text x="653.399" y="1109.465" fill="#000" font-size="13" textLength="125.506" font-family="'Segoe UI', 'Noto Sans', Arial, sans-serif">Nhân viên còn dưới</text><text x="653.399" y="1124.598" fill="#000" font-size="13" textLength="99.811" font-family="'Segoe UI', 'Noto Sans', Arial, sans-serif">hạn mức ngày?</text><text x="559.205" y="1109.937" fill="#000" font-size="11" textLength="82.194" font-family="'Segoe UI', 'Noto Sans', Arial, sans-serif">CÒN HẠN MỨC</text><text x="790.905" y="1109.937" fill="#000" font-size="11" textLength="135.454" font-family="'Segoe UI', 'Noto Sans', Arial, sans-serif">HẾT HẠN MỨC HÔM NAY</text><rect x="532.603" y="1137.664" width="167.879" height="66.266" fill="#E8F5E9" style="stroke:#000;stroke-width:1.5;" rx="4" ry="4"/><text x="550.603" y="1167.731" fill="#000" font-size="13" textLength="128.553" font-family="'Segoe UI', 'Noto Sans', Arial, sans-serif">Tiếp tục đứng trong</text><text x="550.603" y="1182.864" fill="#000" font-size="13" textLength="131.879" font-family="'Segoe UI', 'Noto Sans', Arial, sans-serif">hàng chờ xoay vòng</text><rect x="720.482" y="1137.664" width="190.559" height="81.398" fill="#FFECB3" style="stroke:#000;stroke-width:1.5;" rx="4" ry="4"/><text x="738.482" y="1167.731" fill="#000" font-size="13" textLength="154.559" font-family="'Segoe UI', 'Noto Sans', Arial, sans-serif">Tạm rút khỏi vòng xoay</text><text x="738.482" y="1182.864" fill="#000" font-size="13" textLength="144.422" font-family="'Segoe UI', 'Noto Sans', Arial, sans-serif">→ Tự động tính lại vào</text><text x="738.482" y="1197.997" fill="#000" font-size="13" textLength="153.62" font-family="'Segoe UI', 'Noto Sans', Arial, sans-serif">ngày làm việc tiếp theo</text><polygon points="716.152,1225.063,728.152,1237.063,716.152,1249.063,704.152,1237.063,716.152,1225.063" fill="#FFF" style="stroke:#000;stroke-width:1.5;stroke-linejoin:miter;stroke-miterlimit:10;"/><ellipse cx="716.152" cy="1280.063" rx="11" ry="11" fill="none" style="stroke:#000;stroke-width:1;"/><ellipse cx="716.152" cy="1280.063" rx="6" ry="6" fill="#FFF" style="stroke:#000;stroke-width:1;"/><line x1="441.902" y1="74.281" x2="441.902" y2="94.281" style="stroke:#000;stroke-width:1.5;"/><polygon points="437.902,84.281,441.902,94.281,445.902,84.281,441.902,88.281" fill="#000" style="stroke:#000;stroke-width:1;stroke-linejoin:miter;stroke-miterlimit:10;"/><line x1="441.902" y1="160.547" x2="441.902" y2="180.547" style="stroke:#000;stroke-width:1.5;"/><polygon points="437.902,170.547,441.902,180.547,445.902,170.547,441.902,174.547" fill="#000" style="stroke:#000;stroke-width:1;stroke-linejoin:miter;stroke-miterlimit:10;"/><line x1="328.857" y1="297.078" x2="283.158" y2="297.078" style="stroke:#000;stroke-width:1.5;"/><line x1="283.158" y1="297.078" x2="283.158" y2="322.211" style="stroke:#000;stroke-width:1.5;"/><polygon points="279.158,312.211,283.158,322.211,287.158,312.211,283.158,316.211" fill="#000" style="stroke:#000;stroke-width:1;stroke-linejoin:miter;stroke-miterlimit:10;"/><line x1="554.947" y1="297.078" x2="600.646" y2="297.078" style="stroke:#000;stroke-width:1.5;"/><line x1="600.646" y1="297.078" x2="600.646" y2="322.211" style="stroke:#000;stroke-width:1.5;"/><polygon points="596.646,312.211,600.646,322.211,604.646,312.211,600.646,316.211" fill="#000" style="stroke:#000;stroke-width:1;stroke-linejoin:miter;stroke-miterlimit:10;"/><line x1="283.158" y1="403.609" x2="283.158" y2="421.609" style="stroke:#000;stroke-width:1.5;"/><line x1="283.158" y1="421.609" x2="429.902" y2="421.609" style="stroke:#000;stroke-width:1.5;"/><polygon points="419.902,417.609,429.902,421.609,419.902,425.609,423.902,421.609" fill="#000" style="stroke:#000;stroke-width:1;stroke-linejoin:miter;stroke-miterlimit:10;"/><line x1="600.646" y1="388.477" x2="600.646" y2="421.609" style="stroke:#000;stroke-width:1.5;"/><line x1="600.646" y1="421.609" x2="453.902" y2="421.609" style="stroke:#000;stroke-width:1.5;"/><polygon points="463.902,417.609,453.902,421.609,463.902,425.609,459.902,421.609" fill="#000" style="stroke:#000;stroke-width:1;stroke-linejoin:miter;stroke-miterlimit:10;"/><line x1="441.902" y1="261.945" x2="441.902" y2="281.945" style="stroke:#000;stroke-width:1.5;"/><polygon points="437.902,271.945,441.902,281.945,445.902,271.945,441.902,275.945" fill="#000" style="stroke:#000;stroke-width:1;stroke-linejoin:miter;stroke-miterlimit:10;"/><line x1="236.269" y1="590.406" x2="236.269" y2="610.406" style="stroke:#000;stroke-width:1.5;"/><polygon points="232.269,600.406,236.269,610.406,240.269,600.406,236.269,604.406" fill="#000" style="stroke:#000;stroke-width:1;stroke-linejoin:miter;stroke-miterlimit:10;"/><line x1="303.425" y1="468.742" x2="236.269" y2="468.742" style="stroke:#000;stroke-width:1.5;"/><line x1="236.269" y1="468.742" x2="236.269" y2="493.875" style="stroke:#000;stroke-width:1.5;"/><polygon points="232.269,483.875,236.269,493.875,240.269,483.875,236.269,487.875" fill="#000" style="stroke:#000;stroke-width:1;stroke-linejoin:miter;stroke-miterlimit:10;"/><line x1="580.379" y1="468.742" x2="647.535" y2="468.742" style="stroke:#000;stroke-width:1.5;"/><line x1="647.535" y1="468.742" x2="647.535" y2="493.875" style="stroke:#000;stroke-width:1.5;"/><polygon points="643.535,483.875,647.535,493.875,651.535,483.875,647.535,487.875" fill="#000" style="stroke:#000;stroke-width:1;stroke-linejoin:miter;stroke-miterlimit:10;"/><line x1="647.535" y1="590.406" x2="647.535" y2="637.406" style="stroke:#000;stroke-width:1.5;"/><line x1="647.535" y1="637.406" x2="441.902" y2="637.406" style="stroke:#000;stroke-width:1.5;"/><line x1="441.902" y1="637.406" x2="441.902" y2="652.406" style="stroke:#000;stroke-width:1.5;"/><polygon points="437.902,642.406,441.902,652.406,445.902,642.406,441.902,646.406" fill="#000" style="stroke:#000;stroke-width:1;stroke-linejoin:miter;stroke-miterlimit:10;"/><line x1="441.902" y1="433.609" x2="441.902" y2="453.609" style="stroke:#000;stroke-width:1.5;"/><polygon points="437.902,443.609,441.902,453.609,445.902,443.609,441.902,447.609" fill="#000" style="stroke:#000;stroke-width:1;stroke-linejoin:miter;stroke-miterlimit:10;"/><line x1="167.652" y1="890.602" x2="167.652" y2="925.602" style="stroke:#000;stroke-width:1.5;"/><polygon points="163.652,915.602,167.652,925.602,171.652,915.602,167.652,919.602" fill="#000" style="stroke:#000;stroke-width:1;stroke-linejoin:miter;stroke-miterlimit:10;"/><line x1="600.507" y1="809.203" x2="531.681" y2="809.203" style="stroke:#000;stroke-width:1.5;"/><line x1="531.681" y1="809.203" x2="531.681" y2="834.336" style="stroke:#000;stroke-width:1.5;"/><polygon points="527.681,824.336,531.681,834.336,535.681,824.336,531.681,828.336" fill="#000" style="stroke:#000;stroke-width:1;stroke-linejoin:miter;stroke-miterlimit:10;"/><line x1="831.797" y1="809.203" x2="900.623" y2="809.203" style="stroke:#000;stroke-width:1.5;"/><line x1="900.623" y1="809.203" x2="900.623" y2="834.336" style="stroke:#000;stroke-width:1.5;"/><polygon points="896.623,824.336,900.623,834.336,904.623,824.336,900.623,828.336" fill="#000" style="stroke:#000;stroke-width:1;stroke-linejoin:miter;stroke-miterlimit:10;"/><line x1="531.681" y1="930.867" x2="531.681" y2="948.867" style="stroke:#000;stroke-width:1.5;"/><line x1="531.681" y1="948.867" x2="704.152" y2="948.867" style="stroke:#000;stroke-width:1.5;"/><polygon points="694.152,944.867,704.152,948.867,694.152,952.867,698.152,948.867" fill="#000" style="stroke:#000;stroke-width:1;stroke-linejoin:miter;stroke-miterlimit:10;"/><line x1="900.623" y1="930.867" x2="900.623" y2="948.867" style="stroke:#000;stroke-width:1.5;"/><line x1="900.623" y1="948.867" x2="728.152" y2="948.867" style="stroke:#000;stroke-width:1.5;"/><polygon points="738.152,944.867,728.152,948.867,738.152,952.867,734.152,948.867" fill="#000" style="stroke:#000;stroke-width:1;stroke-linejoin:miter;stroke-miterlimit:10;"/><line x1="716.152" y1="960.867" x2="716.152" y2="980.867" style="stroke:#000;stroke-width:1.5;"/><polygon points="712.152,970.867,716.152,980.867,720.152,970.867,716.152,974.867" fill="#000" style="stroke:#000;stroke-width:1;stroke-linejoin:miter;stroke-miterlimit:10;"/><line x1="641.399" y1="1112.531" x2="616.542" y2="1112.531" style="stroke:#000;stroke-width:1.5;"/><line x1="616.542" y1="1112.531" x2="616.542" y2="1137.664" style="stroke:#000;stroke-width:1.5;"/><polygon points="612.542,1127.664,616.542,1137.664,620.542,1127.664,616.542,1131.664" fill="#000" style="stroke:#000;stroke-width:1;stroke-linejoin:miter;stroke-miterlimit:10;"/><line x1="790.905" y1="1112.531" x2="815.761" y2="1112.531" style="stroke:#000;stroke-width:1.5;"/><line x1="815.761" y1="1112.531" x2="815.761" y2="1137.664" style="stroke:#000;stroke-width:1.5;"/><polygon points="811.761,1127.664,815.761,1137.664,819.761,1127.664,815.761,1131.664" fill="#000" style="stroke:#000;stroke-width:1;stroke-linejoin:miter;stroke-miterlimit:10;"/><line x1="616.542" y1="1203.93" x2="616.542" y2="1237.063" style="stroke:#000;stroke-width:1.5;"/><line x1="616.542" y1="1237.063" x2="704.152" y2="1237.063" style="stroke:#000;stroke-width:1.5;"/><polygon points="694.152,1233.063,704.152,1237.063,694.152,1241.063,698.152,1237.063" fill="#000" style="stroke:#000;stroke-width:1;stroke-linejoin:miter;stroke-miterlimit:10;"/><line x1="815.761" y1="1219.063" x2="815.761" y2="1237.063" style="stroke:#000;stroke-width:1.5;"/><line x1="815.761" y1="1237.063" x2="728.152" y2="1237.063" style="stroke:#000;stroke-width:1.5;"/><polygon points="738.152,1233.063,728.152,1237.063,738.152,1241.063,734.152,1237.063" fill="#000" style="stroke:#000;stroke-width:1;stroke-linejoin:miter;stroke-miterlimit:10;"/><line x1="716.152" y1="1077.398" x2="716.152" y2="1097.398" style="stroke:#000;stroke-width:1.5;"/><polygon points="712.152,1087.398,716.152,1097.398,720.152,1087.398,716.152,1091.398" fill="#000" style="stroke:#000;stroke-width:1;stroke-linejoin:miter;stroke-miterlimit:10;"/><line x1="716.152" y1="1249.063" x2="716.152" y2="1269.063" style="stroke:#000;stroke-width:1.5;"/><polygon points="712.152,1259.063,716.152,1269.063,720.152,1259.063,716.152,1263.063" fill="#000" style="stroke:#000;stroke-width:1;stroke-linejoin:miter;stroke-miterlimit:10;"/><line x1="365.518" y1="768.938" x2="167.652" y2="768.938" style="stroke:#000;stroke-width:1.5;"/><line x1="167.652" y1="768.938" x2="167.652" y2="794.07" style="stroke:#000;stroke-width:1.5;"/><polygon points="163.652,784.07,167.652,794.07,171.652,784.07,167.652,788.07" fill="#000" style="stroke:#000;stroke-width:1;stroke-linejoin:miter;stroke-miterlimit:10;"/><line x1="518.286" y1="768.938" x2="716.152" y2="768.938" style="stroke:#000;stroke-width:1.5;"/><line x1="716.152" y1="768.938" x2="716.152" y2="794.07" style="stroke:#000;stroke-width:1.5;"/><polygon points="712.152,784.07,716.152,794.07,720.152,784.07,716.152,788.07" fill="#000" style="stroke:#000;stroke-width:1;stroke-linejoin:miter;stroke-miterlimit:10;"/><line x1="441.902" y1="733.805" x2="441.902" y2="753.805" style="stroke:#000;stroke-width:1.5;"/><polygon points="437.902,743.805,441.902,753.805,445.902,743.805,441.902,747.805" fill="#000" style="stroke:#000;stroke-width:1;stroke-linejoin:miter;stroke-miterlimit:10;"/><g class="legend" data-source-line="80"><rect x="224.006" y="1305.063" width="851.183" height="111.781" fill="none" style="stroke:#000;stroke-width:1;" rx="4" ry="4"/><rect x="229.006" y="1312.063" width="841.183" height="16.297" fill="#FFF" style="stroke:none;"/><text x="229.006" y="1325.058" fill="#000" font-size="14" font-family="'Segoe UI', 'Noto Sans', Arial, sans-serif"> </text><text x="233.457" y="1325.058" fill="#000" font-size="14" textLength="319.683" font-weight="700" font-family="'Segoe UI', 'Noto Sans', Arial, sans-serif">CHÚ GIẢI VAI TRÒ &amp; Ý NGHĨA NGHIỆP VỤ</text><text x="553.139" y="1325.058" fill="#000" font-size="14" font-family="'Segoe UI', 'Noto Sans', Arial, sans-serif"> </text><rect x="229.006" y="1328.359" width="328.583" height="16.297" fill="#E1F5FE" style="stroke:none;"/><text x="229.006" y="1341.354" fill="#000" font-size="14" textLength="13.351" font-family="'Segoe UI', 'Noto Sans', Arial, sans-serif">   </text><text x="562.04" y="1341.354" fill="#000" font-size="14" textLength="462.909" font-family="'Segoe UI', 'Noto Sans', Arial, sans-serif">Hành động của Hệ thống (Phân bổ Đội &amp; Xoay vòng Round-Robin)</text><rect x="229.006" y="1344.656" width="328.583" height="16.297" fill="#FFF3CD" style="stroke:none;"/><text x="229.006" y="1357.651" fill="#000" font-size="14" textLength="13.351" font-family="'Segoe UI', 'Noto Sans', Arial, sans-serif">   </text><text x="562.04" y="1357.651" fill="#000" font-size="14" textLength="461.187" font-family="'Segoe UI', 'Noto Sans', Arial, sans-serif">Kiểm soát chất lượng dữ liệu (Gộp trùng, bảo vệ tính nguyên vẹn)</text><rect x="229.006" y="1360.953" width="328.583" height="16.297" fill="#EDE7F6" style="stroke:none;"/><text x="229.006" y="1373.948" fill="#000" font-size="14" textLength="13.351" font-family="'Segoe UI', 'Noto Sans', Arial, sans-serif">   </text><text x="562.04" y="1373.948" fill="#000" font-size="14" textLength="401.522" font-family="'Segoe UI', 'Noto Sans', Arial, sans-serif">Tối ưu hóa chuyển đổi (Ưu tiên Chuyên gia theo lĩnh vực)</text><rect x="229.006" y="1377.25" width="328.583" height="16.297" fill="#C8E6C9" style="stroke:none;"/><text x="229.006" y="1390.245" fill="#000" font-size="14" textLength="13.351" font-family="'Segoe UI', 'Noto Sans', Arial, sans-serif">   </text><text x="562.04" y="1390.245" fill="#000" font-size="14" textLength="503.699" font-family="'Segoe UI', 'Noto Sans', Arial, sans-serif">Điểm kết thúc thành công (Lead → Cơ hội, Nhân viên phụ trách rõ ràng)</text><rect x="229.006" y="1393.547" width="328.583" height="16.297" fill="#FFCDD2" style="stroke:none;"/><text x="229.006" y="1406.542" fill="#000" font-size="14" textLength="13.351" font-family="'Segoe UI', 'Noto Sans', Arial, sans-serif">   </text><text x="562.04" y="1406.542" fill="#000" font-size="14" textLength="488.4" font-family="'Segoe UI', 'Noto Sans', Arial, sans-serif">Cảnh báo quản trị (Bể chờ, cần can thiệp của Trưởng nhóm / Quản lý)</text><line x1="229.006" y1="1312.063" x2="1070.189" y2="1312.063" style="stroke:#000;stroke-width:1;"/><line x1="229.006" y1="1328.359" x2="1070.189" y2="1328.359" style="stroke:#000;stroke-width:1;"/><line x1="229.006" y1="1344.656" x2="1070.189" y2="1344.656" style="stroke:#000;stroke-width:1;"/><line x1="229.006" y1="1360.953" x2="1070.189" y2="1360.953" style="stroke:#000;stroke-width:1;"/><line x1="229.006" y1="1377.25" x2="1070.189" y2="1377.25" style="stroke:#000;stroke-width:1;"/><line x1="229.006" y1="1393.547" x2="1070.189" y2="1393.547" style="stroke:#000;stroke-width:1;"/><line x1="229.006" y1="1409.844" x2="1070.189" y2="1409.844" style="stroke:#000;stroke-width:1;"/><line x1="229.006" y1="1312.063" x2="229.006" y2="1409.844" style="stroke:#000;stroke-width:1;"/><line x1="557.589" y1="1312.063" x2="557.589" y2="1409.844" style="stroke:#000;stroke-width:1;"/><line x1="1070.189" y1="1312.063" x2="1070.189" y2="1409.844" style="stroke:#000;stroke-width:1;"/></g><?plantuml-src XLTjRzlM5VwkNt6M0fiCk75aBsdck1vi-aL6RCQrvS06_8MM596mTAb9b5jlAP3KG8sr7HgdAR0qo6R7yr9t3PBCMOE8MFU1dly7-qlsd7Cl9KfrEmEMHDxBSy_Byppdy1U1MwwLgLvrF9LfRdggxZIS6asLRpcjQZ3Zgy1si7vXkLpnoxGoTs6GBjX-uDEoevguc6XuJdMGchXwkrbkUBTIHWfUK2spYMNlzsKQldJkKh1TBTE6NosTVxeycXj9BKuK0s_B2xP_VdNASsg-AdKt3QStDHh--zsbt3dFJ_gDKhbHSBtYfYetcvIxUBdVm4yjBlajLRByXYetw6hg_hBhbFptFLMXMqwrMSvanfeS_7Z6wVfSuOr_o10bz-I2QD4fbVZ9t5MvdFTKkVTulflE25ylE8sAfoZtQrnzYF-Ipac_oU5pDpiSOj_MAxBsOMPio7YU2RYEzDxA6XMMei_iF2tceuzicep31pG_FJ55loGh7uVtx5copfx7uLUBT3qVtRNozCET1rIOjlBMZQL5ifOMCfbcu3I2JEPNz2x_OLyS_cMEJk_5uP_nkDpCZEBcBWLk7Ex1dw8Rjm-sgUv6JnHjnE6N5CJXIphTYyE7M0QqVQh6uQT5L-vzgbpQZCEJTUNwSVjraGgDinTn-5TiLMvqKgFDw1csyk9188SyfMBqIbMkPJAZyt7xQ9jA3cmqemDicoyx9NXmziA1SRPpM3IUo3FhAgiNYz691F7GGpAwjspPkkL5toWy5eT753JOxi2w2Xe-NDgA_edFTqXLelrjgiJjfmfkmelWMZT9itCJdA8RSNlVfjmeNP-BmuyMK8m9BiX3v0r-VxTeikVTegouZQFUm7YvvdXL6gAgU04dTjVLLXm-ycZJbHXFzw93yHOFc1r9ydyxmFbLbBMYBynP0u17Ru5wob71LnrXxVjiw0jgdXqavxZHljwmLrnNFtnyd-Qv1XxNz7Dyj0-LSLclsfNJ7KN3NBLE3eiIKT5bypbZzngDZRqrCpCpOasDZsVA81rb0Ry7I4lAOya8F3giCrXszH6dzxXGsbbn3bWB7wSBBCQdhyvSdluD6rSbQD_vTHaUfLLWNb3m2JWYa9wZmbpS_dwHx7pS_jRkhz0cZdjKfm2njJYgPnh13ct06vHCEu8msyXO4KXr4f1jH0VA-ApOVUnvbIgNYP_P1J8QL-pepWt9nQmNXyy1kTOsvpIG8e3CEsH9-9RRWjbiuBCJaWKAjWTqnYo1Tk2su4MH0AExv7XwwRsMbB0Q_PkAWcDy7hNWvBTWKrKEwGRQOMSgrnGuswQOrjJKCF9Dr0pyUgUcgM1q79m4mr3_dCp0zXjTS_1KTEByJ0zoBW1ME0zZW-cqcx1j5ocxsz8ezmmC-U8fFlNI9hvsrQX0w4-AxDcu_SqAwZuNVMAJfaySVeQYB4CfuOznjyIvhegoy0_W0TwV8GG-zWFWcvejbeEk_9W3Yeul6mSqH7CpbsUc_mz4HqQDSbk23bj-tnG7ZV3EmtInHxMqJ1bdpuiOkNvL8-LiZo9LTvxGTK4YDZduBA3iDIh5uJzmCGHAm_S_SdwFwtgt1VqZ5dX5jJWyBXeXpBuBEFa18mtbh53qcaOk3K0IcJh6cI8_cXA7TGKwjG_vj2CyahZLuOHXmUczQ8VZQVzzhIiC5M64ZZN5X3JbK3ABHLuZG847eXU9qlUeb0WzBEmO-FIt85RuPqAGGt03YFKJFTAPvLQnvwMR4ncwyF67YDtHyJMTbc7CzAN97p76YkxRh07j9pGLXt_JIjWlFjNJO_W09hzaQ6b9gE78H73IWOdK64H87dhwWvLVMMCi0NC3Cb6CteG3in1g7WFEdgz038KCtNt0Z92O-MltwFn9ZpCfAflsg1DszhmbdDRCxU4BqsGlO9gO6aXA0KjaxiJXflLQEe6SWr8f2UbBJzDfQlgTcIkIpvw6ydDX3akOgpScraZVq2oRZDilx5a4kXeTOzuGKKN7UyZGtkVCcu1xUM0Qf6ZRVu-HxwRV2FIiSqwGW6_xa7a6sTLFhlhEjf6Lm2087VQbgWoQLW7P9aRGxrhH0L8gkEjL4eIkjGGHfcMZa8_keB_91SBANUpJ2m0zYSski0UFlPxPH-HNkUjg-A8Ei6T-K31LaTPHJwnO625SJS6HYpJhUWb_ShhgPjZeqn09nhewVSNYpcs0tuinfBp43Zw2vHyzdu8sM9GN0Ls8mwyjK_G2SlwVEZj_f6d9LH9km5XgcFY0Ao5ZNkyiaI0BbhylfEqJeBP0ziHQSf1eQ2Dg1qBPppqpDBBX3hHJyp0dr_HRpiowqf9QZVPhY1o8Bu8osdV0AP4FQtAaj-PQH_HLjLp1Bxp01O4FLxoA6s37s5iLrsy6uxTfR6FSoaTVWHBGcZcwYPw3qUi-Hk7eCJfX_lJh2Vx2sFhn8js458qDROpJRTYutG4SGhsDqBdWIIXQW7fcpUnYzpMWCs-lTbAiNylUNl8tF3MG761cGpdWEXAm0ztqemDX3vEeqtrBt0IgdA8MPMTbaDK3wQ2CfpwhvAv9S38zRSNjDzsZZ6x8KLfmpbwqjE3qoGnbkzfb6QMhU8vvdUbgSiUqWRAObZw1C3PHHbO532e9MJJNjSBBm9QGP_0dNqQ0hN_X7v1DfKmcC3dCwdOfg8KPqp4xKLOwfQ1yC1dv72oocEpMJVNwMzzGQaxauu0hZQx_0G00?></g></svg>